<svg xmlns="http://www.w3.org/2000/svg" xmlns:xlink="http://www.w3.org/1999/xlink" width="24" height="24" viewBox="0 0 24 24">
  <defs>
    <path id="image-gallery-a" d="M14.1489,20 L7.7999,20 C5.7049,20 3.9999,18.295 3.9999,16.2 L3.9999,9.851 C3.9999,9.299 4.4479,8.851 4.9999,8.851 C5.5519,8.851 5.9999,9.299 5.9999,9.851 L5.9999,16.2 C5.9999,17.192 6.8079,18 7.7999,18 L14.1489,18 C14.7009,18 15.1489,18.448 15.1489,19 C15.1489,19.552 14.7009,20 14.1489,20 Z M14.8564,10.0322 C14.2154,10.0322 13.6964,9.5212 13.6964,8.8912 C13.6964,8.2612 14.2154,7.7512 14.8564,7.7512 C15.4974,7.7512 16.0174,8.2612 16.0174,8.8912 C16.0174,9.5212 15.4974,10.0322 14.8564,10.0322 Z M10.3154,13.7783 C10.0234,13.7783 9.8944,13.5503 10.0254,13.2693 L11.8374,9.3913 C11.9684,9.1103 12.2194,9.0853 12.3964,9.3353 L14.2184,11.9083 C14.3964,12.1583 14.7054,12.1793 14.9104,11.9553 L15.3564,11.4673 C15.5614,11.2433 15.8634,11.2713 16.0304,11.5293 L17.1844,13.3103 C17.3514,13.5693 17.2504,13.7783 16.9594,13.7783 L10.3154,13.7783 Z M10.2393,6 C9.6883,6 9.2393,6.449 9.2393,7 L9.2393,13.761 C9.2393,14.312 9.6883,14.761 10.2393,14.761 L17.0003,14.761 C17.5513,14.761 18.0003,14.312 18.0003,13.761 L18.0003,7 C18.0003,6.449 17.5513,6 17.0003,6 L10.2393,6 Z M17.0003,16.761 L10.2393,16.761 C8.5853,16.761 7.2393,15.415 7.2393,13.761 L7.2393,7 C7.2393,5.346 8.5853,4 10.2393,4 L17.0003,4 C18.6543,4 20.0003,5.346 20.0003,7 L20.0003,13.761 C20.0003,15.415 18.6543,16.761 17.0003,16.761 Z"/>
  </defs>
  <g fill="none" fill-rule="evenodd">
    <polygon fill="#FFF" points="0 24 24 24 24 0 0 0" opacity="0"/>
    <mask id="image-gallery-b" fill="#fff">
      <use xlink:href="#image-gallery-a"/>
    </mask>
    <use fill="#FFF" xlink:href="#image-gallery-a"/>
    <g fill="#000" mask="url(#image-gallery-b)">
      <rect width="24" height="24"/>
    </g>
  </g>
</svg>
